<svg width="30" height="30" viewBox="0 0 30 30" fill="none" xmlns="http://www.w3.org/2000/svg">
<path d="M26.38 18.6942L24.435 16.7491C23.9882 16.2681 23.7293 15.6425 23.7055 14.9864V11.157C23.7055 6.23345 20.4232 2.03934 14.5879 2.03934C8.7526 2.03934 5.47025 6.11189 5.47025 11.157V15.4119C5.45899 15.7967 5.3077 16.1641 5.04476 16.4452L2.79574 18.6942C2.56668 18.9187 2.4356 19.2246 2.43103 19.5452V23.9217C2.43103 24.2441 2.55911 24.5533 2.7871 24.7813C3.01508 25.0093 3.3243 25.1374 3.64672 25.1374H10.3938C10.5629 26.1272 11.0767 27.0254 11.8443 27.6729C12.6118 28.3205 13.5837 28.6756 14.5879 28.6756C15.5921 28.6756 16.564 28.3205 17.3315 27.6729C18.0991 27.0254 18.6129 26.1272 18.782 25.1374H25.5291C25.8515 25.1374 26.1607 25.0093 26.3887 24.7813C26.6167 24.5533 26.7448 24.2441 26.7448 23.9217V19.5452C26.7402 19.2246 26.6091 18.9187 26.38 18.6942Z" fill="#53ACFF"/>
</svg>
